<svg fill="#535D7C" xmlns="http://www.w3.org/2000/svg" xmlns:xlink="http://www.w3.org/1999/xlink" version="1.1" x="0px" y="0px" viewBox="0 0 100 100" style="enable-background:new 0 0 100 100;" xml:space="preserve"><g><path d="M55.8193359,71.3779297H29.3154297c-1.875,0-4.1660156,2.3847656-4.1660156,5.1669922v0.6318359   c0,2.7822266,2.2910156,5.1660156,4.1660156,5.1660156h3.7675781v-4.5351562h-2.7675781c-0.5527344,0-1-0.4472656-1-1   s0.4472656-1,1-1h25.5039062V71.3779297z"></path><path d="M25.1494141,62.3154297v1.8964844v7.2521362c1.1869507-1.2964478,2.7344971-2.0861206,4.1660156-2.0861206h26.5039062   V10.8237305H29.3154297c-1.875,0-4.1660156,2.3837891-4.1660156,5.1660156V62.3154297z"></path><path d="M74.8505859,70.6416016v-1.4764404c-1.3051147,1.3606567-3.1363525,2.2127686-5.1660156,2.2127686h-2.4384766v4.4296875   h2.4384766C72.5332031,75.8076172,74.8505859,73.4902344,74.8505859,70.6416016z"></path><path d="M35.0830078,88.5234375l2.828125-1.4824219c0.2890625-0.1523438,0.6386719-0.1523438,0.9277344,0l2.828125,1.4824219   V77.8076172h-6.5839844V88.5234375z"></path><path d="M74.8505859,77.1767578v-1.5819092c-1.3051147,1.3606567-3.1363525,2.2127686-5.1660156,2.2127686h-2.4384766v4.5351562   h1.4384766C72.3154297,82.3427734,74.8505859,80.21875,74.8505859,77.1767578z"></path><rect x="57.8193359" y="10.8237305" width="7.4267578" height="58.5541992"></rect><path d="M68.6845703,10.8237305h-1.4384766v58.5541992h2.4384766c2.8486328,0,5.1660156-2.3173828,5.1660156-5.1660156v-48.222168   C74.8505859,12.9482422,72.3154297,10.8237305,68.6845703,10.8237305z"></path><rect x="43.6669922" y="77.8076172" width="12.1523438" height="4.5351562"></rect><rect x="57.8193359" y="71.3779297" width="7.4267578" height="10.9648438"></rect></g></svg>